:SAMPLES-PER-SECOND 30
:FULLY-SPECIFIED
:DEGREES
124
root  -3.162555619 37.81622338 6.949911343 119.9119873 -83.74819946 -123.3269958
lowerback  12.3739996 4.827549934 -4.586820126
upperback  3.606709957 5.477399826 -2.81498003
thorax  -3.274990082 2.62928009 -1.191859961
lowerneck  1.493389964 8.428219795 -4.317949772
upperneck  9.425439835 10.72350025 6.058529854
head  2.155730009 5.274819851 2.782249928
lclavicle  0 -9.442270133e-015 7.951389973e-016
lhumerus  -10.97659969 -4.620069981 69.28479767
lradius  2.640691305e-031 -2.344268216e-031 138.4029999
lwrist  -7.062250077e-031 -8.827812596e-032 22.14620018
lhand  -1.496451383e-031 -27.76390076 20.11240005
lfingers  90 7.125020027 -90
lthumb  89.89689403 5.08795885 91.16245106
rclavicle  0 -9.442270133e-015 7.951389973e-016
rhumerus  -4.579219818 17.95490074 -81.95809937
rradius  -2.660156519e-031 2.322156612e-031 138.8809967
rwrist  1.059337512e-030 -0 -2.922899961
rhand  -7.920061211e-032 -33.2840004 9.303460121
rfingers  -90 -7.125020027 -90
rthumb  -92.93752616 -24.25625642 -97.11982154
rfemur  -5.322750092 13.5156002 7.946660042
rtibia  -0 0 48.73809814
rfoot  -0 -18.91300011 -10.25370026
rtoes  5.373923086 19.29304026 -105.8922705
lfemur  -25.72159958 2.762909889 1.980530024
ltibia  -0 0 57.65399933
lfoot  4.557520747e-032 -14.42179966 3.417769909
ltoes  -4.250644065 -19.5611806 -102.515957
125
root  -3.025822189 37.83733338 6.831021947 129.1579895 -83.04669952 -132.6270142
lowerback  12.34570026 4.925010204 -4.05384016
upperback  3.772140026 5.656610012 -3.062829971
thorax  -3.013170004 2.70946002 -1.756929994
lowerneck  1.776219964 8.509129524 -4.334869862
upperneck  9.061869621 10.82269955 6.228640079
head  1.969750047 5.325570107 2.806649923
lclavicle  0 -9.442270133e-015 7.951389973e-016
lhumerus  -10.1079998 -4.117750168 68.54910278
lradius  2.640077512e-031 -2.344959439e-031 138.3880005
lwrist  -1.412450015e-030 4.413906298e-031 22.48730087
lhand  -1.496451383e-031 -27.76390076 20.11240005
lfingers  90 7.125020027 -90
lthumb  89.89689403 5.08795885 91.16245106
rclavicle  0 -9.442270133e-015 7.951389973e-016
rhumerus  -4.26967001 19.13940048 -82.75270081
rradius  -2.638480677e-031 2.346756006e-031 138.348999
rwrist  7.062250077e-031 -3.531125038e-031 -2.961329937
rhand  -7.920061211e-032 -33.2840004 9.303460121
rfingers  -90 -7.125020027 -90
rthumb  -92.93752616 -24.25625642 -97.11982154
rfemur  -5.099259853 13.57479954 7.95923996
rtibia  -0 0 47.38550186
rfoot  -0 -20.28050041 -10.48600006
rtoes  5.373923086 19.29304026 -105.8922705
lfemur  -25.3572998 3.570679903 2.219990015
ltibia  -0 0 57.6393013
lfoot  4.548938973e-032 -13.99530029 3.524919987
ltoes  -4.250644065 -19.5611806 -102.515957
126
root  -2.883777844 37.88799977 6.71417807 135.5759888 -82.00939941 -139.0159912
lowerback  12.46539974 5.041779995 -3.516220093
upperback  3.772650003 5.860599995 -3.163170099
thorax  -3.014139891 2.809170008 -2.197410107
lowerneck  2.123620033 8.671699524 -4.269740105
upperneck  8.954799652 11.01949978 6.303390026
head  1.86184001 5.419980049 2.792309999
lclavicle  0 -9.442270133e-015 7.951389973e-016
lhumerus  -9.33798027 -3.521270037 67.94210052
lradius  2.641550187e-031 -2.343300374e-031 138.423996
lwrist  -7.062250077e-031 -0 22.87100029
lhand  -1.496451383e-031 -27.76390076 20.11240005
lfingers  90 7.125020027 -90
lthumb  89.89689403 5.08795885 91.16245106
rclavicle  0 -9.442270133e-015 7.951389973e-016
rhumerus  -4.408760071 20.28190041 -83.70510101
rradius  -2.617115315e-031 2.370559315e-031 137.8300018
rwrist  1.412450015e-030 -0 -2.894079924
rhand  -7.920061211e-032 -33.2840004 9.303460121
rfingers  -90 -7.125020027 -90
rthumb  -92.93752616 -24.25625642 -97.11982154
rfemur  -4.978650093 13.80000019 8.156399727
rtibia  -0 0 45.94309998
rfoot  -0 -20.86090088 -11.28269958
rtoes  5.373923086 19.29304026 -105.8922705
lfemur  -24.98130035 4.299530029 2.728699923
ltibia  -0 0 57.42959976
lfoot  9.071885344e-032 -13.32069969 3.694750071
ltoes  -4.250644065 -19.5611806 -102.515957
127
root  -2.734177695 37.97777732 6.602311322 140.618988 -80.93640137 -143.9500122
lowerback  12.6633997 5.171760082 -3.108299971
upperback  3.715450048 6.062099934 -3.24545002
thorax  -3.128449917 2.907949924 -2.559139967
lowerneck  2.321019888 8.835339546 -4.190330029
upperneck  9.119580269 11.2123003 6.343490124
head  1.87270999 5.511590004 2.784719944
lclavicle  0 -9.442270133e-015 7.951389973e-016
lhumerus  -8.527099609 -2.908489943 67.44249725
lradius  2.648899158e-031 -2.334989783e-031 138.6040039
lwrist  -7.062250077e-031 1.765562519e-031 23.42289925
lhand  -1.496451383e-031 -27.76390076 20.11240005
lfingers  90 7.125020027 -90
lthumb  89.89689403 5.08795885 91.16245106
rclavicle  0 -9.442270133e-015 7.951389973e-016
rhumerus  -4.667520046 21.45929909 -84.54689789
rradius  -2.594615598e-031 2.395164699e-031 137.2890015
rwrist  7.062250077e-031 -0 -2.490760088
rhand  -7.920061211e-032 -33.2840004 9.303460121
rfingers  -90 -7.125020027 -90
rthumb  -92.93752616 -24.25625642 -97.11982154
rfemur  -4.984590054 14.17780018 8.280099869
rtibia  -0 0 44.49259949
rfoot  -0 -20.98579979 -11.55589962
rtoes  5.373923086 19.29304026 -105.8922705
lfemur  -24.60180092 4.814149857 3.203799963
ltibia  -0 0 57.04190063
lfoot  4.520518269e-032 -12.46819973 3.862699986
ltoes  -4.250644065 -19.5611806 -102.515957
128
root  -2.581133242 38.1111115 6.509111059 145.3559875 -79.97699738 -148.45401
lowerback  12.72239971 5.319149971 -2.773439884
upperback  3.703099966 6.281030178 -3.4223001
thorax  -3.113080025 3.014169931 -2.966180086
lowerneck  2.447710037 8.9478302 -4.267869949
upperneck  9.286359787 11.33080006 6.535359859
head  1.883080006 5.565909863 2.857520103
lclavicle  0 -9.442270133e-015 7.951389973e-016
lhumerus  -7.548120022 -2.323729992 67.00550079
lradius  2.663800723e-031 -2.317975355e-031 138.970993
lwrist  -7.062250077e-031 -1.765562519e-031 24.23200035
lhand  -1.496451383e-031 -27.76390076 20.11240005
lfingers  90 7.125020027 -90
lthumb  89.89689403 5.08795885 91.16245106
rclavicle  0 -9.442270133e-015 7.951389973e-016
rhumerus  -4.764039993 22.50250053 -85.07379913
rradius  -2.571757615e-031 2.41969147e-031 136.7449951
rwrist  3.531125038e-031 -7.062250077e-031 -2.041130066
rhand  -7.920061211e-032 -33.2840004 9.303460121
rfingers  -90 -7.125020027 -90
rthumb  -92.93752616 -24.25625642 -97.11982154
rfemur  -5.226480007 14.43830013 8.080369949
rtibia  -0 0 43.08069992
rfoot  -0 -21.37709999 -10.31459999
rtoes  5.373923086 19.29304026 -105.8922705
lfemur  -24.27610016 5.100699902 3.410439968
ltibia  -0 0 56.49330139
lfoot  4.50286371e-032 -11.40779972 4.159009933
ltoes  -4.250644065 -19.5611806 -102.515957
129
root  -2.422777687 38.28155638 6.427177669 149.6300049 -79.06999969 -152.4639893
lowerback  12.81869984 5.512279987 -2.510299921
upperback  3.673510075 6.544839859 -3.64786005
thorax  -3.132169962 3.141860008 -3.396579981
lowerneck  2.726700068 8.980600357 -4.223609924
upperneck  9.44878006 11.33710003 6.667409897
head  1.881909966 5.563610077 2.882999897
lclavicle  0 -9.442270133e-015 7.951389973e-016
lhumerus  -6.454080105 -1.713070035 66.59069824
lradius  2.682525435e-031 -2.296279889e-031 139.4360046
lwrist  -1.412450015e-030 8.827812596e-032 25.31579971
lhand  -1.496451383e-031 -27.76390076 20.11240005
lfingers  90 7.125020027 -90
lthumb  89.89689403 5.08795885 91.16245106
rclavicle  0 -9.442270133e-015 7.951389973e-016
rhumerus  -4.947740078 23.17539978 -85.45500183
rradius  -2.552120746e-031 2.440394177e-031 136.2819977
rwrist  3.531125038e-031 -0 -1.896790028
rhand  -7.920061211e-032 -33.2840004 9.303460121
rfingers  -90 -7.125020027 -90
rthumb  -92.93752616 -24.25625642 -97.11982154
rfemur  -5.608719826 14.47049999 7.635359764
rtibia  -0 0 41.72100067
rfoot  -0 -20.94879913 -8.982520103
rtoes  5.373923086 19.29304026 -105.8922705
lfemur  -23.94300079 5.184679985 3.484460115
ltibia  -0 0 55.8042984
lfoot  4.483358016e-032 -10.09809971 4.413189888
ltoes  -4.250644065 -19.5611806 -102.515957
